<?xml version="1.0" standalone="no"?>
<!DOCTYPE svg PUBLIC "-//W3C//DTD SVG 20010904//EN"
 "http://www.w3.org/TR/2001/REC-SVG-20010904/DTD/svg10.dtd">
<svg version="1.0" xmlns="http://www.w3.org/2000/svg"
 width="260.000000pt" height="260.000000pt" viewBox="0 0 260.000000 260.000000"
 preserveAspectRatio="xMidYMid meet">
<metadata>
Created by potrace 1.11, written by Peter Selinger 2001-2013
</metadata>
<g transform="translate(0.000000,260.000000) scale(0.100000,-0.100000)"
fill="#000000" stroke="none">
<path d="M0 1300 l0 -1300 1300 0 1300 0 0 1300 0 1300 -1300 0 -1300 0 0
-1300z m2070 785 c81 -25 184 -82 243 -134 80 -73 148 -191 172 -298 l7 -33
-97 0 c-82 0 -96 2 -101 18 -54 162 -185 270 -360 295 -244 36 -450 -116 -521
-383 -24 -91 -24 -329 0 -420 77 -291 299 -435 578 -376 132 28 231 103 285
217 l28 59 93 0 c52 0 93 -4 93 -10 0 -20 -48 -140 -74 -184 -71 -122 -226
-223 -381 -251 -337 -60 -619 67 -748 337 -25 51 -53 122 -62 158 -23 87 -32
337 -15 436 39 243 165 431 351 523 46 23 113 48 149 56 84 19 282 13 360 -10z
m-1030 -90 l0 -85 -360 0 -360 0 0 -255 0 -255 335 0 335 0 0 -85 0 -85 -335
0 -335 0 0 -320 0 -320 -95 0 -95 0 0 745 0 745 455 0 455 0 0 -85z"/>
</g>
</svg>
